HIERARCHY
ROOT hip
{
  OFFSET 0.0 0.0 0.0
  CHANNELS 6 Xposition Yposition Zposition Zrotation Yrotation Xrotation
  JOINT torso
  {
    OFFSET 0.0 0.0 0.0
    CHANNELS 3 Zrotation Xrotation Yrotation
    JOINT neck
    {
      OFFSET -20.11218299999996 327.95800799999995 66.30578600000035
      CHANNELS 3 Zrotation Xrotation Yrotation
      JOINT head
      {
        OFFSET 18.28939800000012 288.83178699999996 217.81652800000006
        CHANNELS 3 Zrotation Xrotation Yrotation
        End Site
        {
          OFFSET 0.0 0.0 0.0
        }
      }
    }
    JOINT left_collar
    {
      OFFSET -20.11218299999996 327.95800799999995 66.30578600000035
      CHANNELS 3 Zrotation Xrotation Yrotation
      JOINT left_upper_arm
      {
        OFFSET -127.08163400000001 -16.17407199999991 15.44799799999987
        CHANNELS 3 Zrotation Xrotation Yrotation
        JOINT left_forearm
        {
          OFFSET -234.267792 45.78796399999999 109.31286600000021
          CHANNELS 3 Zrotation Xrotation Yrotation
          JOINT left_hand
          {
            OFFSET -259.114014 -33.25433399999997 16.18847699999992
            CHANNELS 3 Zrotation Xrotation Yrotation
            End Site
            {
              OFFSET 0.0 0.0 0.0
            }
          }
        }
      }
    }
    JOINT right_collar
    {
      OFFSET -20.11218299999996 327.95800799999995 66.30578600000035
      CHANNELS 3 Zrotation Xrotation Yrotation
      JOINT right_upper_arm
      {
        OFFSET 164.513184 1.5733030000000099 4.892333999999892
        CHANNELS 3 Zrotation Xrotation Yrotation
        JOINT right_forearm
        {
          OFFSET 260.742027 48.718444999999974 144.35229500000014
          CHANNELS 3 Zrotation Xrotation Yrotation
          JOINT right_hand
          {
            OFFSET 287.85150899999996 -44.57171600000015 13.96813899999961
            CHANNELS 3 Zrotation Xrotation Yrotation
            End Site
            {
              OFFSET 0.0 0.0 0.0
            }
          }
        }
      }
    }
  }
}
MOTION
Frames: 9
Frame Time: 0.01
-270.5166705769199 259.92068515619883 1388.75408955055 -2.106269243158853 1.8639513932243013 -2.654560641271826 0.7864743623689068 -1.4786685343188457 -0.25927662081553193 -0.7364339260330981 -14.99476882335577 1.462597671964333 0.0 0.0 0.0 0.3368320322453149 0.0695914896887651 -0.21967099825514416 74.23256797321153 15.83688586388321 34.3342702820924 7.288849551130082 0.9328860365777453 -2.436968242594366 0.0 0.0 0.0 0.615771702942994 -0.155686925347595 9.15206270419696 -61.402054447840825 20.286298118239046 -28.81340159789508 -20.08658222332658 -1.1907146629763832 -6.4585501183205505 0.0 100.0 0.0
-270.4015647097944 259.79330562815676 1388.5491815082032 -2.1461403103037813 1.8164437620338747 -2.5969127539951544 0.795407998459455 -1.4784393075913493 -0.26117970771672044 -0.7356429817869704 -15.029769495340766 1.4639070941043275 0.0 0.0 0.0 0.3485541959897721 0.0654441469968493 -0.17677403403721895 74.19873705908951 15.864911325189933 34.27029552571297 7.333358113716497 0.9367482301897151 -2.4371559363262927 0.0 0.0 0.0 0.6009817031947075 -0.15382396661167874 9.136361575082582 -61.372584507967176 20.286570524162176 -28.793277489772358 -20.12551918031473 -1.1799310692109664 -6.425803739004483 0.0 100.0 0.0
-270.2867465127438 259.66433570568427 1388.3429069689414 -2.18674734286503 1.768294526829013 -2.538599723109379 0.8043771800614211 -1.4781438252659354 -0.26308592591397306 -0.7349092504462982 -15.065921717112573 1.4653258699416132 0.0 0.0 0.0 0.3608179823414456 0.061271195677491196 -0.13323635669620265 74.16550992851245 15.893952503624671 34.2044655548458 7.37651941574612 0.9402184993404842 -2.4359259385846155 0.0 0.0 0.0 0.5862800492048313 -0.1519784814954842 9.120906857795667 -61.34239885663289 20.286581704814445 -28.773283443822937 -20.16576399260057 -1.1687924075158944 -6.392054434582647 0.0 100.0 0.0
-270.1707943077174 259.5334579520152 1388.1333033851238 -2.2281927870110074 1.7192806110012817 -2.479633699388611 0.8132332962822263 -1.477772827262022 -0.2649627168774798 -0.7343348325480287 -15.103692036300785 1.4669622767459893 0.0 0.0 0.0 0.3736623559900935 0.05707254761156589 -0.0890270566811273 74.13282027025673 15.924059732023384 34.136662079211646 7.418457941433749 0.9432980169507587 -2.43323812572788 0.0 0.0 0.0 0.5717731901643053 -0.1501643492437868 9.105857530767432 -61.31145111863371 20.286235753743327 -28.753618652776833 -20.20759864806636 -1.1571766512775339 -6.356945205200232 0.0 100.0 0.0
-270.0520809434628 259.4003345163465 1387.9181311242153 -2.2705884521107635 1.669163212473453 -2.420027428132561 0.8218229957036586 -1.4773213906524703 -0.2667767964732029 -0.7340366218267869 -15.143553794576096 1.4689369169646938 0.0 0.0 0.0 0.3871068282377105 0.05284751851613016 -0.0441295422940811 74.10058170075543 15.955247223186339 34.06682970897268 7.4593378651507605 0.9459983873107175 -2.429088014530668 0.0 0.0 0.0 0.557547455921575 -0.14839308747208327 9.091371009219653 -61.2796765758449 20.28543314252304 -28.734479360154786 -20.251315525962927 -1.1449523295943613 -6.3200943547203465 0.0 100.0 0.0
-269.9288005303145 259.2646290584432 1387.6949256211244 -2.3140486457046703 1.6176975475704682 -2.359800563950627 0.8299916661064883 -1.4767886568743795 -0.268494886465341 -0.7341441562747009 -15.185967376409694 1.4713799001857013 0.0 0.0 0.0 0.40114587677863567 0.04859584437171146 0.0014458421430329407 74.06869326644112 15.987482558764174 33.9949979357666 7.499354901830548 0.9483420602546931 -2.4235122111752965 0.0 0.0 0.0 0.543665540175831 -0.1466734093478102 9.077597658259984 -61.24699712438493 20.284073687303003 -28.716055021864843 -20.297203800806955 -1.1319826291980704 -6.281108302606359 0.0 100.0 0.0
-269.79899577916035 259.12602752101924 1387.461053629732 -2.3586825312059365 1.564642146165254 -2.2989847585654313 0.8375862582544742 -1.4761770727948638 -0.2700842719550533 -0.734796274290581 -15.231360422325643 1.474427063266244 0.0 0.0 0.0 0.4157443407939616 0.04431886689983127 0.04764900592353639 74.03704422301088 16.020678089330936 33.92129931394109 7.538728457571077 0.9503625215761835 -2.416592584487564 0.0 0.0 0.0 0.5301640823777539 -0.14501088878846688 9.064673984847099 -61.21332759433117 20.282059919329225 -28.698524403561944 -20.34553531699804 -1.118129867494585 -6.2395953827511565 0.0 100.0 0.0
-269.66058474541074 258.9842565502009 1387.213771584769 -2.4045860689248504 1.5097672988439663 -2.237627155499979 0.8444573767083965 -1.4754912148405706 -0.2715131725329434 -0.7361365977254877 -15.280108690541065 1.4782152830934618 0.0 0.0 0.0 0.43083409899425 0.04002084401846547 0.09437772232245159 74.00551787363358 16.054684826383223 33.845982637720894 7.577694316915734 0.9521042123836924 -2.4084588152510342 0.0 0.0 0.0 0.5170524431396739 -0.14340774346808122 9.052714596426004 -61.178583217713744 20.279300802659147 -28.682051607441895 -20.396550490128252 -1.103260195180041 -6.195180157577794 0.0 100.0 0.0
-269.51138595219214 258.83909844751093 1386.9502841150284 -2.451833999367349 1.452862297809716 -2.1757920427370783 0.8504606832492231 -1.4747362942618243 -0.2727509433795935 -0.7383079677094694 -15.332518197814034 1.4828770165884413 0.0 0.0 0.0 0.4463122491184172 0.035710330342275214 0.14146625303018234 73.97399438964018 16.08928923753412 33.769420275706224 7.616497953205764 0.9536221382731015 -2.399289080593459 0.0 0.0 0.0 0.5043126664107437 -0.14186273549911013 9.041803106157571 -61.14268794558405 20.275715722929306 -28.666782008593252 -20.450444805939636 -1.0872483685500989 -6.147517716336461 0.0 100.0 0.0
